<svg width="282" height="87.99999999999999" xmlns="http://www.w3.org/2000/svg" preserveAspectRatio="xMidYMid meet">

 <g>
  <title>background</title>
  <rect fill="none" id="canvas_background" height="90" width="284" y="-1" x="-1"/>
 </g>
 <g>
  <title>Layer 1</title>
  <path fill="#f66107" id="svg_2" d="m5.354678,2.700051c-1.9,1.9 -1.7,81.100001 0.2,82.700001c0.9,0.8 4.7,1.1 10.7,0.9l9.3,-0.3l0.9,-4.2l0.8,-4.3l19.9,0l19.9,0l0.3,4.3l0.3,4.2l9.4,0.3c6,0.2 9.8,-0.1 10.7,-0.9c2.1,-1.7 2.1,-81.100001 0,-82.800001c-0.9,-0.8 -4.7,-1.1 -10.7,-0.9l-9.4,0.3l-0.3,4.2l-0.3,4.3l-20,0l-19.9,0l0,-3.3c0,-5 -1.3,-5.7 -11.5,-5.7c-5.7,0 -9.5,0.4 -10.3,1.2zm18,7l0.3,4.3l23,0l23,0l0.3,-4.3l0.3,-4.2l7.5,0l7.4,0l0,38.500001l0,38.500001l-7.4,0l-7.5,0l-0.3,-4.3l-0.3,-4.2l-23,0l-23,0l-0.3,4.2l-0.3,4.3l-7.5,0l-7.4,0l0,-38.500001l0,-38.500001l7.4,0l7.5,0l0.3,4.2z"/>
  <path fill="#f66107" id="svg_3" d="m12.154678,16.500052c0,3.9 0.1,4 3.5,4c3.4,0 3.5,-0.1 3.5,-4c0,-3.9 -0.1,-4 -3.5,-4c-3.4,0 -3.5,0.1 -3.5,4z"/>
  <path fill="#f66107" id="svg_4" d="m74.154679,16.500052c0,3.9 0.1,4 3.5,4c3.4,0 3.5,-0.1 3.5,-4c0,-3.9 -0.1,-4 -3.5,-4c-3.4,0 -3.5,0.1 -3.5,4z"/>
  <path fill="#f66107" id="svg_5" d="m24.154678,44.000052l0,19.5l22.5,0l22.5,0l0,-19.5l0,-19.5l-22.5,0l-22.5,0l0,19.5zm43.000001,0l0,17.5l-20.5,0l-20.5,0l0,-17.5l0,-17.5l20.5,0l20.5,0l0,17.5z"/>
  <path fill="#f66107" id="svg_6" d="m41.154679,43.500052c0,4.9 0.3,9 0.6,9c1.6,0 14.3,-8.6 14,-9.5c-0.3,-1 -12.4,-8.3 -13.8,-8.4c-0.5,-0.1 -0.8,3.9 -0.8,8.9zm9.8,1.1c-1.2,0.9 -3.4,2.4 -5,3.3l-2.8,1.7l0,-6.1l0,-6.1l5,2.8c5,2.8 5,2.8 2.8,4.4z"/>
  <path fill="#f66107" id="svg_7" d="m12.154678,31.000052c0,3.3 0.2,3.5 3.5,3.5c3.3,0 3.5,-0.2 3.5,-3.5c0,-3.3 -0.2,-3.5 -3.5,-3.5c-3.3,0 -3.5,0.2 -3.5,3.5z"/>
  <path fill="#f66107" id="svg_8" d="m74.154679,31.000052c0,3.3 0.2,3.5 3.5,3.5c3.3,0 3.5,-0.2 3.5,-3.5c0,-3.3 -0.2,-3.5 -3.5,-3.5c-3.3,0 -3.5,0.2 -3.5,3.5z"/>
  <path fill="#f66107" id="svg_9" d="m12.154678,45.000052c0,3.3 0.2,3.5 3.5,3.5c3.3,0 3.5,-0.2 3.5,-3.5c0,-3.3 -0.2,-3.5 -3.5,-3.5c-3.3,0 -3.5,0.2 -3.5,3.5z"/>
  <path fill="#f66107" id="svg_10" d="m74.154679,45.000052c0,3.3 0.2,3.5 3.5,3.5c3.3,0 3.5,-0.2 3.5,-3.5c0,-3.3 -0.2,-3.5 -3.5,-3.5c-3.3,0 -3.5,0.2 -3.5,3.5z"/>
  <path fill="#f66107" id="svg_11" d="m12.154678,59.000052c0,3.3 0.2,3.5 3.5,3.5c3.3,0 3.5,-0.2 3.5,-3.5c0,-3.3 -0.2,-3.5 -3.5,-3.5c-3.3,0 -3.5,0.2 -3.5,3.5z"/>
  <path fill="#f66107" id="svg_12" d="m74.154679,59.000052c0,3.3 0.2,3.5 3.5,3.5c3.3,0 3.5,-0.2 3.5,-3.5c0,-3.3 -0.2,-3.5 -3.5,-3.5c-3.3,0 -3.5,0.2 -3.5,3.5z"/>
  <path fill="#f66107" id="svg_13" d="m12.154678,73.000052c0,3.3 0.2,3.5 3.5,3.5c3.3,0 3.5,-0.2 3.5,-3.5c0,-3.3 -0.2,-3.5 -3.5,-3.5c-3.3,0 -3.5,0.2 -3.5,3.5z"/>
  <path fill="#f66107" id="svg_14" d="m74.154679,73.000052c0,3.3 0.2,3.5 3.5,3.5c3.3,0 3.5,-0.2 3.5,-3.5c0,-3.3 -0.2,-3.5 -3.5,-3.5c-3.3,0 -3.5,0.2 -3.5,3.5z"/>
  <path fill="#f66107" id="svg_15" d="m182.354681,31.900052c-3.7,1.7 -5.6,5.5 -4.3,8.9c1.2,3.2 3,4.4 7.6,5.2c5.2,1 6.9,2.3 5.4,4.1c-1.6,1.9 -4.9,1.8 -7.1,-0.3c-1.5,-1.3 -2.3,-1.4 -4.3,-0.5c-2.2,1 -2.4,1.5 -1.5,3.2c1.7,3.1 4.9,4.3 10.8,3.8c6.2,-0.5 9.2,-3 9.2,-7.7c0,-4.2 -2.1,-6.2 -8.1,-7.5c-3.6,-0.8 -5.5,-1.8 -5.7,-2.9c-0.3,-1.3 0.4,-1.7 3,-1.7c1.9,0 3.9,0.5 4.6,1.2c0.9,0.9 1.8,0.9 3.8,-0.1l2.7,-1.2l-2.5,-2.5c-3.1,-3.1 -9,-4 -13.6,-2z"/>
  <path fill="#f66107" id="svg_16" d="m120.65468,42.700052c-2.2,6.2 -4.1,11.9 -4.3,12.5c-0.2,0.9 0.8,1.3 2.8,1.3c2.3,0 3.3,-0.5 3.7,-2c0.4,-1.6 1.4,-2 4.9,-2c3.3,0 4.6,0.5 5.4,2c0.7,1.3 2.1,2 4.1,2c3.5,0 3.7,1.1 -2.1,-14.5c-3.6,-9.8 -3.7,-10 -7.1,-10.3l-3.4,-0.3l-4,11.3zm9,1c0.7,3.6 0.6,3.8 -2,3.8c-2.2,0 -2.6,-0.3 -2,-1.8c0.4,-0.9 0.9,-3.2 1.2,-5.1c0.7,-3.8 1.7,-2.7 2.8,3.1z"/>
  <path fill="#f66107" id="svg_17" d="m142.35468,43.700052l0.3,12.3l2.9,0.3l2.8,0.4l-0.3,-8.6c-0.2,-4.7 -0.3,-8.6 -0.1,-8.6c0.1,0 0.7,1.2 1.3,2.7c0.6,1.6 2.7,5.4 4.7,8.5c3,4.7 4.2,5.8 6.5,5.8l2.7,0l0,-12.5l0,-12.5l-3,0c-2.9,0 -3,0.2 -3,4.3c0,2.3 0.4,5.8 1,7.6c1.2,4.4 0.5,5.3 -1.2,1.5c-0.7,-1.6 -2.8,-5.3 -4.7,-8.2c-3,-4.6 -3.8,-5.2 -6.8,-5.2l-3.4,0l0.3,12.2z"/>
  <path fill="#f66107" id="svg_18" d="m167.35468,43.700052l0.3,12.3l3,0l3,0l0.3,-12.3l0.3,-12.2l-3.6,0l-3.6,0l0.3,12.2z"/>
  <path fill="#f66107" id="svg_19" d="m201.354681,43.700052l0.3,12.3l8.5,0l8.5,0l0.3,-2.8c0.3,-2.7 0.2,-2.7 -5.2,-2.7c-4.9,0 -5.6,-0.2 -5.6,-2c0,-1.7 0.7,-2 4.6,-2c4.4,0 4.5,-0.1 4.2,-2.8c-0.3,-2.4 -0.7,-2.7 -4.5,-3c-3.5,-0.3 -4.3,-0.7 -4.3,-2.3c0,-1.6 0.7,-1.9 5.5,-1.9c5.2,0 5.5,-0.1 5.5,-2.5c0,-2.5 -0.1,-2.5 -9,-2.5l-9.1,0l0.3,12.2z"/>
  <path fill="#f66107" id="svg_20" d="m222.354681,43.700052l0.3,12.3l3,0c2.8,0 3,-0.3 3.3,-4.3c0.4,-5 1.6,-5.3 4.2,-1c2.9,5 3.8,5.8 7,5.8c3.6,0 3.6,-0.3 0.8,-4.7c-2,-3.3 -2,-3.7 -0.5,-6.3c2.5,-4.1 2.2,-9.2 -0.6,-11.8c-2,-1.9 -3.5,-2.2 -10,-2.2l-7.8,0l0.3,12.2zm12.8,-5.7c1.7,2 -0.3,4.5 -3.6,4.5c-2,0 -2.4,-0.5 -2.4,-3c0,-2.5 0.4,-3 2.4,-3c1.3,0 2.9,0.7 3.6,1.5z"/>
  <path fill="#f66107" id="svg_21" d="m246.154682,44.000052l0,12.5l3,0l3,0l0,-12.5l0,-12.5l-3,0l-3,0l0,12.5z"/>
  <path fill="#f66107" id="svg_22" d="m259.254682,43.100052c-2.2,6.4 -4.1,12 -4.1,12.5c0,1.8 5,0.9 6.2,-1.1c0.9,-1.5 2.4,-2 5.3,-2c2.9,0 4.4,0.5 5.3,2c1.4,2.3 6.2,2.8 6.2,0.6c0,-1.1 -4.6,-14.5 -7.5,-21.9c-0.5,-1.1 -1.8,-1.7 -4,-1.7c-3.2,0 -3.2,0 -7.4,11.6zm9.9,3.6c0,0.5 -1.2,0.8 -2.6,0.8c-2.3,0 -2.5,-0.3 -2,-2.3c0.4,-1.2 0.9,-3.5 1.3,-5.1c0.6,-2.9 0.6,-2.9 1.9,1.5c0.8,2.4 1.4,4.7 1.4,5.1z"/>
 </g>
</svg>